<svg width="157" height="61" viewBox="0 0 157 61" fill="none" xmlns="http://www.w3.org/2000/svg">
<path d="M66 30.5C66 46.7062 51.5396 60 33.5 60C15.4604 60 1 46.7062 1 30.5C1 14.2938 15.4604 1 33.5 1C51.5396 1 66 14.2938 66 30.5Z" stroke="#8C1515" stroke-width="2"/>
<path d="M59 30.5C59 43.3725 47.9164 54 34 54C20.0836 54 9 43.3725 9 30.5C9 17.6275 20.0836 7 34 7C47.9164 7 59 17.6275 59 30.5Z" stroke="#8C1515" stroke-opacity="0.7" stroke-width="4"/>
<path fill-rule="evenodd" clip-rule="evenodd" d="M17 17.8571C17 16.5003 17.5564 15.2733 18.4535 14.3921L18.3878 14.274C18.6046 14.1257 18.8274 13.9979 19.0541 13.8899C19.846 13.3294 20.8131 13 21.8571 13V13.526C23.1012 13.7747 24.2264 14.5699 24.9086 15.8393L35.2179 35.0215L42.9073 16.0683C43.5157 14.5687 44.7398 13.588 46.1429 13.2879V13C46.6494 13 47.1379 13.0775 47.597 13.2214C48.1445 13.286 48.6964 13.452 49.2305 13.7275L49.9645 14.1062L49.7514 14.6058C50.5275 15.4667 51 16.6068 51 17.8571V45.0814H46.1429V23.0635L39.3153 39.0661L36.023 38.957L32.2653 39.2129L21.8571 20.5087V45.0814H17V17.8571Z" fill="#8C1515" fill-opacity="0.7"/>
<path d="M74.5176 15.4688H75.9121L78.2441 21.8906L80.5703 15.4688H81.9707L78.8008 24H77.6816L74.5176 15.4688ZM73.8145 15.4688H75.1797L75.4258 21.3691V24H73.8145V15.4688ZM81.3027 15.4688H82.6738V24H81.0625V21.3691L81.3027 15.4688ZM87.6895 22.6523V19.7285C87.6895 19.5137 87.6523 19.3281 87.5781 19.1719C87.5039 19.0156 87.3906 18.8945 87.2383 18.8086C87.0859 18.7227 86.8926 18.6797 86.6582 18.6797C86.4512 18.6797 86.2695 18.7148 86.1133 18.7852C85.9609 18.8555 85.8438 18.9551 85.7617 19.084C85.6797 19.209 85.6387 19.3535 85.6387 19.5176H84.0859C84.0859 19.2559 84.1484 19.0078 84.2734 18.7734C84.3984 18.5352 84.5762 18.3242 84.8066 18.1406C85.041 17.9531 85.3203 17.8066 85.6445 17.7012C85.9727 17.5957 86.3398 17.543 86.7461 17.543C87.2266 17.543 87.6543 17.625 88.0293 17.7891C88.4082 17.9492 88.7051 18.1914 88.9199 18.5156C89.1387 18.8398 89.248 19.248 89.248 19.7402V22.5059C89.248 22.8223 89.2676 23.0938 89.3066 23.3203C89.3496 23.543 89.4121 23.7363 89.4941 23.9004V24H87.918C87.8438 23.8398 87.7871 23.6367 87.748 23.3906C87.709 23.1406 87.6895 22.8945 87.6895 22.6523ZM87.9062 20.1387L87.918 21.0586H86.9395C86.6973 21.0586 86.4844 21.084 86.3008 21.1348C86.1172 21.1816 85.9668 21.252 85.8496 21.3457C85.7324 21.4355 85.6445 21.5449 85.5859 21.6738C85.5273 21.7988 85.498 21.9414 85.498 22.1016C85.498 22.2578 85.5332 22.3984 85.6035 22.5234C85.6777 22.6484 85.7832 22.748 85.9199 22.8223C86.0605 22.8926 86.2246 22.9277 86.4121 22.9277C86.6855 22.9277 86.9238 22.873 87.127 22.7637C87.3301 22.6504 87.4883 22.5137 87.6016 22.3535C87.7148 22.1934 87.7754 22.041 87.7832 21.8965L88.2285 22.5645C88.1738 22.7246 88.0918 22.8945 87.9824 23.0742C87.873 23.2539 87.7324 23.4219 87.5605 23.5781C87.3887 23.7344 87.1816 23.8633 86.9395 23.9648C86.6973 24.0664 86.416 24.1172 86.0957 24.1172C85.6855 24.1172 85.3184 24.0352 84.9941 23.8711C84.6699 23.707 84.4141 23.4824 84.2266 23.1973C84.0391 22.9121 83.9453 22.5879 83.9453 22.2246C83.9453 21.8887 84.0078 21.5918 84.1328 21.334C84.2578 21.0762 84.4434 20.8594 84.6895 20.6836C84.9355 20.5039 85.2402 20.3691 85.6035 20.2793C85.9707 20.1855 86.3906 20.1387 86.8633 20.1387H87.9062ZM92.1895 18.9551V24H90.6426V17.6602H92.1074L92.1895 18.9551ZM94.1172 17.6191L94.0938 19.0605C94.0078 19.0449 93.9102 19.0332 93.8008 19.0254C93.6953 19.0176 93.5957 19.0137 93.502 19.0137C93.2637 19.0137 93.0547 19.0469 92.875 19.1133C92.6953 19.1758 92.5449 19.2676 92.4238 19.3887C92.3066 19.5098 92.2168 19.6582 92.1543 19.834C92.0918 20.0059 92.0566 20.2012 92.0488 20.4199L91.7148 20.3789C91.7148 19.9766 91.7559 19.6035 91.8379 19.2598C91.9199 18.916 92.0391 18.6152 92.1953 18.3574C92.3516 18.0996 92.5469 17.9004 92.7812 17.7598C93.0195 17.6152 93.293 17.543 93.6016 17.543C93.6875 17.543 93.7793 17.5508 93.877 17.5664C93.9785 17.5781 94.0586 17.5957 94.1172 17.6191ZM97.4512 22.8984C97.6699 22.8984 97.8652 22.8555 98.0371 22.7695C98.209 22.6836 98.3457 22.5625 98.4473 22.4062C98.5527 22.25 98.6094 22.0684 98.6172 21.8613H100.076C100.068 22.291 99.9473 22.6758 99.7129 23.0156C99.4785 23.3555 99.166 23.625 98.7754 23.8242C98.3887 24.0195 97.9551 24.1172 97.4746 24.1172C96.9863 24.1172 96.5605 24.0352 96.1973 23.8711C95.834 23.707 95.5312 23.4785 95.2891 23.1855C95.0508 22.8926 94.8711 22.5527 94.75 22.166C94.6328 21.7793 94.5742 21.3652 94.5742 20.9238V20.7363C94.5742 20.2949 94.6328 19.8809 94.75 19.4941C94.8711 19.1074 95.0508 18.7676 95.2891 18.4746C95.5312 18.1816 95.834 17.9531 96.1973 17.7891C96.5605 17.625 96.9844 17.543 97.4688 17.543C97.9805 17.543 98.4297 17.6426 98.8164 17.8418C99.207 18.041 99.5117 18.3223 99.7305 18.6855C99.9531 19.0488 100.068 19.4766 100.076 19.9688H98.6172C98.6094 19.7422 98.5586 19.5391 98.4648 19.3594C98.3711 19.1797 98.2383 19.0352 98.0664 18.9258C97.8945 18.8164 97.6855 18.7617 97.4395 18.7617C97.1777 18.7617 96.959 18.8164 96.7832 18.9258C96.6113 19.0352 96.4766 19.1855 96.3789 19.377C96.2852 19.5645 96.2188 19.7754 96.1797 20.0098C96.1445 20.2402 96.127 20.4824 96.127 20.7363V20.9238C96.127 21.1816 96.1445 21.4277 96.1797 21.6621C96.2188 21.8965 96.2852 22.1074 96.3789 22.2949C96.4766 22.4785 96.6113 22.625 96.7832 22.7344C96.959 22.8438 97.1816 22.8984 97.4512 22.8984ZM102.748 17.6602V24H101.195V17.6602H102.748ZM101.09 16.002C101.09 15.7715 101.168 15.5801 101.324 15.4277C101.484 15.2754 101.699 15.1992 101.969 15.1992C102.238 15.1992 102.451 15.2754 102.607 15.4277C102.768 15.5801 102.848 15.7715 102.848 16.002C102.848 16.2285 102.768 16.418 102.607 16.5703C102.451 16.7227 102.238 16.7988 101.969 16.7988C101.699 16.7988 101.484 16.7227 101.324 16.5703C101.168 16.418 101.09 16.2285 101.09 16.002ZM105.742 19.0137V24H104.195V17.6602H105.648L105.742 19.0137ZM105.496 20.6016H105.039C105.043 20.1406 105.105 19.7227 105.227 19.3477C105.348 18.9727 105.518 18.6504 105.736 18.3809C105.959 18.1113 106.223 17.9043 106.527 17.7598C106.832 17.6152 107.172 17.543 107.547 17.543C107.852 17.543 108.127 17.5859 108.373 17.6719C108.619 17.7578 108.83 17.8945 109.006 18.082C109.186 18.2695 109.322 18.5156 109.416 18.8203C109.514 19.1211 109.562 19.4922 109.562 19.9336V24H108.004V19.9219C108.004 19.6328 107.961 19.4043 107.875 19.2363C107.793 19.0684 107.672 18.9492 107.512 18.8789C107.355 18.8086 107.162 18.7734 106.932 18.7734C106.693 18.7734 106.484 18.8223 106.305 18.9199C106.129 19.0137 105.98 19.1445 105.859 19.3125C105.742 19.4805 105.652 19.6738 105.59 19.8926C105.527 20.1113 105.496 20.3477 105.496 20.6016ZM112.445 15V24H110.893V15H112.445ZM112.199 20.6016H111.742C111.742 20.1602 111.801 19.7539 111.918 19.3828C112.035 19.0117 112.201 18.6895 112.416 18.416C112.631 18.1387 112.887 17.9238 113.184 17.7715C113.484 17.6191 113.816 17.543 114.18 17.543C114.492 17.543 114.775 17.5879 115.029 17.6777C115.287 17.7637 115.508 17.9023 115.691 18.0938C115.875 18.2852 116.016 18.5352 116.113 18.8438C116.215 19.1484 116.266 19.5195 116.266 19.957V24H114.707V19.9453C114.707 19.6523 114.664 19.4219 114.578 19.2539C114.492 19.082 114.369 18.959 114.209 18.8848C114.053 18.8105 113.859 18.7734 113.629 18.7734C113.379 18.7734 113.164 18.8223 112.984 18.9199C112.805 19.0137 112.656 19.1445 112.539 19.3125C112.426 19.4805 112.34 19.6738 112.281 19.8926C112.227 20.1113 112.199 20.3477 112.199 20.6016ZM117.355 20.8945V20.7715C117.355 20.3066 117.422 19.8789 117.555 19.4883C117.688 19.0938 117.881 18.752 118.135 18.4629C118.389 18.1738 118.699 17.9492 119.066 17.7891C119.434 17.625 119.852 17.543 120.32 17.543C120.797 17.543 121.219 17.625 121.586 17.7891C121.957 17.9492 122.27 18.1738 122.523 18.4629C122.777 18.752 122.971 19.0938 123.104 19.4883C123.236 19.8789 123.303 20.3066 123.303 20.7715V20.8945C123.303 21.3555 123.236 21.7832 123.104 22.1777C122.971 22.5684 122.777 22.9102 122.523 23.2031C122.27 23.4922 121.959 23.7168 121.592 23.877C121.225 24.0371 120.805 24.1172 120.332 24.1172C119.863 24.1172 119.443 24.0371 119.072 23.877C118.701 23.7168 118.389 23.4922 118.135 23.2031C117.881 22.9102 117.688 22.5684 117.555 22.1777C117.422 21.7832 117.355 21.3555 117.355 20.8945ZM118.902 20.7715V20.8945C118.902 21.1719 118.93 21.4316 118.984 21.6738C119.039 21.916 119.123 22.1289 119.236 22.3125C119.35 22.4961 119.496 22.6406 119.676 22.7461C119.859 22.8477 120.078 22.8984 120.332 22.8984C120.582 22.8984 120.797 22.8477 120.977 22.7461C121.156 22.6406 121.303 22.4961 121.416 22.3125C121.533 22.1289 121.619 21.916 121.674 21.6738C121.729 21.4316 121.756 21.1719 121.756 20.8945V20.7715C121.756 20.498 121.729 20.2422 121.674 20.0039C121.619 19.7617 121.533 19.5488 121.416 19.3652C121.303 19.1777 121.154 19.0312 120.971 18.9258C120.791 18.8164 120.574 18.7617 120.32 18.7617C120.07 18.7617 119.855 18.8164 119.676 18.9258C119.496 19.0312 119.35 19.1777 119.236 19.3652C119.123 19.5488 119.039 19.7617 118.984 20.0039C118.93 20.2422 118.902 20.498 118.902 20.7715Z" fill="#8A7070"/>
<path d="M79.4355 31.2646V31.6309C79.4355 32.168 79.3639 32.6514 79.2207 33.0811C79.0775 33.5075 78.874 33.8704 78.6104 34.1699C78.3467 34.4694 78.0326 34.6989 77.668 34.8584C77.3034 35.0179 76.8981 35.0977 76.4521 35.0977C76.0127 35.0977 75.609 35.0179 75.2412 34.8584C74.8766 34.6989 74.5609 34.4694 74.2939 34.1699C74.027 33.8704 73.8203 33.5075 73.6738 33.0811C73.5273 32.6514 73.4541 32.168 73.4541 31.6309V31.2646C73.4541 30.7243 73.5273 30.2409 73.6738 29.8145C73.8203 29.388 74.0254 29.0251 74.2891 28.7256C74.5527 28.4229 74.8669 28.1917 75.2314 28.0322C75.5993 27.8727 76.0029 27.793 76.4424 27.793C76.8883 27.793 77.2936 27.8727 77.6582 28.0322C78.0228 28.1917 78.3369 28.4229 78.6006 28.7256C78.8675 29.0251 79.0726 29.388 79.2158 29.8145C79.3623 30.2409 79.4355 30.7243 79.4355 31.2646ZM78.0781 31.6309V31.2549C78.0781 30.8675 78.0423 30.5273 77.9707 30.2344C77.8991 29.9382 77.7933 29.6891 77.6533 29.4873C77.5133 29.2855 77.3408 29.1341 77.1357 29.0332C76.9307 28.929 76.6995 28.877 76.4424 28.877C76.182 28.877 75.9508 28.929 75.749 29.0332C75.5505 29.1341 75.3812 29.2855 75.2412 29.4873C75.1012 29.6891 74.9938 29.9382 74.9189 30.2344C74.8473 30.5273 74.8115 30.8675 74.8115 31.2549V31.6309C74.8115 32.015 74.8473 32.3551 74.9189 32.6514C74.9938 32.9476 75.1012 33.1982 75.2412 33.4033C75.3844 33.6051 75.557 33.7581 75.7588 33.8623C75.9606 33.9665 76.1917 34.0186 76.4521 34.0186C76.7126 34.0186 76.9437 33.9665 77.1455 33.8623C77.3473 33.7581 77.5166 33.6051 77.6533 33.4033C77.7933 33.1982 77.8991 32.9476 77.9707 32.6514C78.0423 32.3551 78.0781 32.015 78.0781 31.6309ZM84.2549 30.7324V37.0312H82.9609V29.7168H84.1572L84.2549 30.7324ZM87.6484 32.3047V32.4072C87.6484 32.7913 87.6029 33.1478 87.5117 33.4766C87.4238 33.8021 87.2936 34.0869 87.1211 34.3311C86.9486 34.5719 86.7337 34.7607 86.4766 34.8975C86.2227 35.0309 85.9297 35.0977 85.5977 35.0977C85.2721 35.0977 84.9889 35.0358 84.748 34.9121C84.5072 34.7852 84.3037 34.6061 84.1377 34.375C83.9717 34.1439 83.8382 33.8753 83.7373 33.5693C83.6396 33.2601 83.5664 32.9232 83.5176 32.5586V32.2314C83.5664 31.8441 83.6396 31.4925 83.7373 31.1768C83.8382 30.8577 83.9717 30.5827 84.1377 30.3516C84.3037 30.1172 84.5055 29.9365 84.7432 29.8096C84.984 29.6826 85.2656 29.6191 85.5879 29.6191C85.9232 29.6191 86.2178 29.6826 86.4717 29.8096C86.7288 29.9365 86.9453 30.1188 87.1211 30.3564C87.2969 30.5941 87.4287 30.8773 87.5166 31.2061C87.6045 31.5348 87.6484 31.901 87.6484 32.3047ZM86.3545 32.4072V32.3047C86.3545 32.0703 86.3333 31.8538 86.291 31.6553C86.2487 31.4535 86.1836 31.2777 86.0957 31.1279C86.0078 30.9749 85.8939 30.8561 85.7539 30.7715C85.6139 30.6868 85.4447 30.6445 85.2461 30.6445C85.0475 30.6445 84.8766 30.6771 84.7334 30.7422C84.5902 30.8073 84.473 30.9001 84.3818 31.0205C84.2907 31.141 84.2191 31.2842 84.167 31.4502C84.1182 31.613 84.0856 31.7936 84.0693 31.9922V32.8027C84.0986 33.0436 84.1556 33.2601 84.2402 33.4521C84.3249 33.6442 84.4486 33.7972 84.6113 33.9111C84.7773 34.0251 84.9922 34.082 85.2559 34.082C85.4544 34.082 85.6237 34.0381 85.7637 33.9502C85.9036 33.8623 86.0176 33.7419 86.1055 33.5889C86.1934 33.4326 86.2568 33.2536 86.2959 33.0518C86.335 32.8499 86.3545 32.6351 86.3545 32.4072ZM89.8799 30.7959V35H88.5908V29.7168H89.8115L89.8799 30.7959ZM91.4863 29.6826L91.4668 30.8838C91.3952 30.8708 91.3138 30.861 91.2227 30.8545C91.1348 30.848 91.0518 30.8447 90.9736 30.8447C90.7751 30.8447 90.6009 30.8724 90.4512 30.9277C90.3014 30.9798 90.1761 31.0563 90.0752 31.1572C89.9775 31.2581 89.9027 31.3818 89.8506 31.5283C89.7985 31.6715 89.7692 31.8343 89.7627 32.0166L89.4844 31.9824C89.4844 31.6471 89.5186 31.3363 89.5869 31.0498C89.6553 30.7633 89.7546 30.5127 89.8848 30.2979C90.015 30.083 90.1777 29.917 90.373 29.7998C90.5716 29.6794 90.7995 29.6191 91.0566 29.6191C91.1283 29.6191 91.2048 29.6257 91.2861 29.6387C91.3708 29.6484 91.4375 29.6631 91.4863 29.6826ZM91.8281 32.4121V32.3096C91.8281 31.9222 91.8835 31.5658 91.9941 31.2402C92.1048 30.9115 92.266 30.6266 92.4775 30.3857C92.6891 30.1449 92.9479 29.9577 93.2539 29.8242C93.5599 29.6875 93.9082 29.6191 94.2988 29.6191C94.696 29.6191 95.0475 29.6875 95.3535 29.8242C95.6628 29.9577 95.9232 30.1449 96.1348 30.3857C96.3464 30.6266 96.5075 30.9115 96.6182 31.2402C96.7288 31.5658 96.7842 31.9222 96.7842 32.3096V32.4121C96.7842 32.7962 96.7288 33.1527 96.6182 33.4814C96.5075 33.807 96.3464 34.0918 96.1348 34.3359C95.9232 34.5768 95.6644 34.764 95.3584 34.8975C95.0524 35.0309 94.7025 35.0977 94.3086 35.0977C93.918 35.0977 93.568 35.0309 93.2588 34.8975C92.9495 34.764 92.6891 34.5768 92.4775 34.3359C92.266 34.0918 92.1048 33.807 91.9941 33.4814C91.8835 33.1527 91.8281 32.7962 91.8281 32.4121ZM93.1172 32.3096V32.4121C93.1172 32.6432 93.14 32.8597 93.1855 33.0615C93.2311 33.2633 93.3011 33.4408 93.3955 33.5938C93.4899 33.7467 93.612 33.8672 93.7617 33.9551C93.9147 34.0397 94.097 34.082 94.3086 34.082C94.5169 34.082 94.696 34.0397 94.8457 33.9551C94.9954 33.8672 95.1175 33.7467 95.2119 33.5938C95.3096 33.4408 95.3812 33.2633 95.4268 33.0615C95.4723 32.8597 95.4951 32.6432 95.4951 32.4121V32.3096C95.4951 32.0817 95.4723 31.8685 95.4268 31.6699C95.3812 31.4681 95.3096 31.2907 95.2119 31.1377C95.1175 30.9814 94.9938 30.8594 94.8408 30.7715C94.6911 30.6803 94.5104 30.6348 94.2988 30.6348C94.0905 30.6348 93.9115 30.6803 93.7617 30.7715C93.612 30.8594 93.4899 30.9814 93.3955 31.1377C93.3011 31.2907 93.2311 31.4681 93.1855 31.6699C93.14 31.8685 93.1172 32.0817 93.1172 32.3096ZM97.7168 27.5H99.0107V33.833L98.8838 35H97.7168V27.5ZM102.409 32.3047V32.4072C102.409 32.8011 102.365 33.1624 102.277 33.4912C102.193 33.82 102.064 34.1048 101.892 34.3457C101.719 34.5833 101.504 34.7689 101.247 34.9023C100.993 35.0326 100.695 35.0977 100.354 35.0977C100.028 35.0977 99.7448 35.0342 99.5039 34.9072C99.2663 34.7803 99.0661 34.6012 98.9033 34.3701C98.7406 34.1357 98.6104 33.8607 98.5127 33.5449C98.415 33.2259 98.3418 32.8776 98.293 32.5V32.2217C98.3418 31.8408 98.415 31.4925 98.5127 31.1768C98.6104 30.861 98.7406 30.5859 98.9033 30.3516C99.0661 30.1172 99.2663 29.9365 99.5039 29.8096C99.7415 29.6826 100.021 29.6191 100.344 29.6191C100.689 29.6191 100.99 29.6859 101.247 29.8193C101.507 29.9495 101.722 30.1351 101.892 30.376C102.064 30.6136 102.193 30.8968 102.277 31.2256C102.365 31.5511 102.409 31.9108 102.409 32.3047ZM101.115 32.4072V32.3047C101.115 32.0801 101.097 31.8685 101.062 31.6699C101.026 31.4681 100.967 31.2907 100.886 31.1377C100.804 30.9847 100.694 30.8643 100.554 30.7764C100.414 30.6885 100.238 30.6445 100.026 30.6445C99.8245 30.6445 99.652 30.6787 99.5088 30.7471C99.3688 30.8154 99.2516 30.9098 99.1572 31.0303C99.0661 31.1507 98.9945 31.2923 98.9424 31.4551C98.8936 31.6178 98.861 31.7936 98.8447 31.9824V32.7441C98.8675 32.9948 98.9212 33.221 99.0059 33.4229C99.0905 33.6214 99.2158 33.7793 99.3818 33.8965C99.5511 34.0137 99.7692 34.0723 100.036 34.0723C100.244 34.0723 100.419 34.0316 100.559 33.9502C100.699 33.8656 100.809 33.7484 100.891 33.5986C100.972 33.4456 101.029 33.2682 101.062 33.0664C101.097 32.8646 101.115 32.6449 101.115 32.4072ZM104.714 27.5V35H103.42V27.5H104.714ZM108.317 35.0977C107.917 35.0977 107.557 35.0326 107.238 34.9023C106.919 34.7721 106.647 34.5915 106.423 34.3604C106.201 34.126 106.031 33.8542 105.91 33.5449C105.793 33.2324 105.734 32.8971 105.734 32.5391V32.3438C105.734 31.9368 105.793 31.5674 105.91 31.2354C106.027 30.9001 106.193 30.612 106.408 30.3711C106.623 30.1302 106.88 29.9447 107.18 29.8145C107.479 29.6842 107.81 29.6191 108.171 29.6191C108.545 29.6191 108.876 29.6826 109.162 29.8096C109.449 29.9333 109.688 30.109 109.88 30.3369C110.072 30.5648 110.217 30.8382 110.314 31.1572C110.412 31.473 110.461 31.8229 110.461 32.207V32.749H106.32V31.8604H109.191V31.7627C109.185 31.5576 109.146 31.3704 109.074 31.2012C109.003 31.0286 108.892 30.8919 108.742 30.791C108.592 30.6868 108.399 30.6348 108.161 30.6348C107.969 30.6348 107.801 30.6771 107.658 30.7617C107.518 30.8431 107.401 30.9603 107.307 31.1133C107.215 31.263 107.147 31.4421 107.102 31.6504C107.056 31.8587 107.033 32.0898 107.033 32.3438V32.5391C107.033 32.7604 107.062 32.9655 107.121 33.1543C107.183 33.3431 107.272 33.5075 107.39 33.6475C107.51 33.7842 107.653 33.8916 107.819 33.9697C107.989 34.0446 108.181 34.082 108.396 34.082C108.666 34.082 108.91 34.0299 109.128 33.9258C109.349 33.8184 109.541 33.6605 109.704 33.4521L110.354 34.126C110.243 34.2887 110.093 34.445 109.904 34.5947C109.719 34.7445 109.494 34.8665 109.23 34.9609C108.967 35.0521 108.662 35.0977 108.317 35.0977ZM112.609 30.8008V35H111.32V29.7168H112.536L112.609 30.8008ZM112.419 32.168H112.023C112.023 31.8001 112.067 31.4616 112.155 31.1523C112.246 30.8431 112.38 30.5745 112.556 30.3467C112.731 30.1156 112.948 29.9365 113.205 29.8096C113.465 29.6826 113.767 29.6191 114.108 29.6191C114.346 29.6191 114.564 29.6549 114.763 29.7266C114.961 29.7949 115.132 29.904 115.275 30.0537C115.422 30.2002 115.534 30.3923 115.612 30.6299C115.69 30.8643 115.729 31.1458 115.729 31.4746V35H114.44V31.6064C114.44 31.359 114.405 31.1654 114.333 31.0254C114.265 30.8854 114.165 30.7878 114.035 30.7324C113.905 30.6738 113.749 30.6445 113.566 30.6445C113.365 30.6445 113.19 30.6852 113.044 30.7666C112.901 30.8447 112.782 30.9538 112.688 31.0938C112.596 31.2337 112.528 31.3949 112.482 31.5771C112.44 31.7594 112.419 31.9564 112.419 32.168ZM115.632 31.9287L115.1 32.0264C115.103 31.6943 115.148 31.3835 115.236 31.0938C115.324 30.8008 115.453 30.5452 115.622 30.3271C115.795 30.1058 116.008 29.9333 116.262 29.8096C116.519 29.6826 116.815 29.6191 117.15 29.6191C117.411 29.6191 117.645 29.6566 117.854 29.7314C118.065 29.8031 118.246 29.9186 118.396 30.0781C118.545 30.2344 118.659 30.4378 118.737 30.6885C118.819 30.9391 118.859 31.2451 118.859 31.6064V35H117.561V31.6016C117.561 31.3444 117.525 31.1475 117.453 31.0107C117.385 30.874 117.285 30.7796 117.155 30.7275C117.025 30.6722 116.872 30.6445 116.696 30.6445C116.517 30.6445 116.361 30.6787 116.228 30.7471C116.097 30.8122 115.987 30.9033 115.896 31.0205C115.808 31.1377 115.741 31.2744 115.695 31.4307C115.653 31.5837 115.632 31.7497 115.632 31.9287ZM122.927 33.877V31.4404C122.927 31.2614 122.896 31.1068 122.834 30.9766C122.772 30.8464 122.678 30.7454 122.551 30.6738C122.424 30.6022 122.263 30.5664 122.067 30.5664C121.895 30.5664 121.743 30.5957 121.613 30.6543C121.486 30.7129 121.389 30.7959 121.32 30.9033C121.252 31.0075 121.218 31.1279 121.218 31.2646H119.924C119.924 31.0465 119.976 30.8398 120.08 30.6445C120.184 30.446 120.332 30.2702 120.524 30.1172C120.72 29.9609 120.952 29.8389 121.223 29.751C121.496 29.6631 121.802 29.6191 122.141 29.6191C122.541 29.6191 122.897 29.6875 123.21 29.8242C123.526 29.9577 123.773 30.1595 123.952 30.4297C124.134 30.6999 124.226 31.04 124.226 31.4502V33.7549C124.226 34.0186 124.242 34.2448 124.274 34.4336C124.31 34.6191 124.362 34.7803 124.431 34.917V35H123.117C123.055 34.8665 123.008 34.6973 122.976 34.4922C122.943 34.2839 122.927 34.0788 122.927 33.877ZM123.107 31.7822L123.117 32.5488H122.302C122.1 32.5488 121.923 32.57 121.77 32.6123C121.617 32.6514 121.491 32.71 121.394 32.7881C121.296 32.863 121.223 32.9541 121.174 33.0615C121.125 33.1657 121.101 33.2845 121.101 33.418C121.101 33.5482 121.13 33.6654 121.188 33.7695C121.25 33.8737 121.338 33.9567 121.452 34.0186C121.569 34.0771 121.706 34.1064 121.862 34.1064C122.09 34.1064 122.289 34.0609 122.458 33.9697C122.627 33.8753 122.759 33.7614 122.854 33.6279C122.948 33.4945 122.998 33.3675 123.005 33.2471L123.376 33.8037C123.33 33.9372 123.262 34.0788 123.171 34.2285C123.08 34.3783 122.963 34.5182 122.819 34.6484C122.676 34.7786 122.504 34.8861 122.302 34.9707C122.1 35.0553 121.866 35.0977 121.599 35.0977C121.257 35.0977 120.951 35.0293 120.681 34.8926C120.41 34.7559 120.197 34.5687 120.041 34.3311C119.885 34.0934 119.807 33.8232 119.807 33.5205C119.807 33.2406 119.859 32.9932 119.963 32.7783C120.067 32.5635 120.222 32.3828 120.427 32.2363C120.632 32.0866 120.886 31.9743 121.188 31.8994C121.494 31.8213 121.844 31.7822 122.238 31.7822H123.107ZM131.047 33.877V27.5H132.346V35H131.174L131.047 33.877ZM127.653 32.4219V32.3193C127.653 31.9157 127.699 31.5495 127.79 31.2207C127.884 30.8887 128.021 30.6038 128.2 30.3662C128.379 30.1286 128.596 29.9447 128.85 29.8145C129.107 29.6842 129.398 29.6191 129.724 29.6191C130.039 29.6191 130.314 29.6826 130.549 29.8096C130.786 29.9365 130.988 30.1172 131.154 30.3516C131.324 30.5859 131.459 30.8643 131.56 31.1865C131.66 31.5055 131.734 31.8571 131.779 32.2412V32.5195C131.734 32.8939 131.66 33.2373 131.56 33.5498C131.459 33.8623 131.324 34.1357 131.154 34.3701C130.988 34.6012 130.786 34.7803 130.549 34.9072C130.311 35.0342 130.033 35.0977 129.714 35.0977C129.392 35.0977 129.102 35.0309 128.845 34.8975C128.591 34.764 128.374 34.5768 128.195 34.3359C128.02 34.0951 127.884 33.8118 127.79 33.4863C127.699 33.1608 127.653 32.806 127.653 32.4219ZM128.947 32.3193V32.4219C128.947 32.6497 128.967 32.863 129.006 33.0615C129.045 33.2601 129.108 33.4359 129.196 33.5889C129.284 33.7386 129.396 33.8558 129.533 33.9404C129.673 34.0251 129.842 34.0674 130.041 34.0674C130.295 34.0674 130.503 34.012 130.666 33.9014C130.832 33.7874 130.961 33.6328 131.052 33.4375C131.143 33.2389 131.201 33.016 131.228 32.7686V32.002C131.215 31.8066 131.18 31.626 131.125 31.46C131.073 31.2939 130.998 31.1507 130.9 31.0303C130.806 30.9098 130.689 30.8154 130.549 30.7471C130.409 30.6787 130.243 30.6445 130.051 30.6445C129.852 30.6445 129.683 30.6885 129.543 30.7764C129.403 30.861 129.289 30.9798 129.201 31.1328C129.113 31.2858 129.048 31.4632 129.006 31.665C128.967 31.8669 128.947 32.085 128.947 32.3193ZM133.283 32.4121V32.3096C133.283 31.9222 133.339 31.5658 133.449 31.2402C133.56 30.9115 133.721 30.6266 133.933 30.3857C134.144 30.1449 134.403 29.9577 134.709 29.8242C135.015 29.6875 135.363 29.6191 135.754 29.6191C136.151 29.6191 136.503 29.6875 136.809 29.8242C137.118 29.9577 137.378 30.1449 137.59 30.3857C137.801 30.6266 137.963 30.9115 138.073 31.2402C138.184 31.5658 138.239 31.9222 138.239 32.3096V32.4121C138.239 32.7962 138.184 33.1527 138.073 33.4814C137.963 33.807 137.801 34.0918 137.59 34.3359C137.378 34.5768 137.119 34.764 136.813 34.8975C136.507 35.0309 136.158 35.0977 135.764 35.0977C135.373 35.0977 135.023 35.0309 134.714 34.8975C134.405 34.764 134.144 34.5768 133.933 34.3359C133.721 34.0918 133.56 33.807 133.449 33.4814C133.339 33.1527 133.283 32.7962 133.283 32.4121ZM134.572 32.3096V32.4121C134.572 32.6432 134.595 32.8597 134.641 33.0615C134.686 33.2633 134.756 33.4408 134.851 33.5938C134.945 33.7467 135.067 33.8672 135.217 33.9551C135.37 34.0397 135.552 34.082 135.764 34.082C135.972 34.082 136.151 34.0397 136.301 33.9551C136.451 33.8672 136.573 33.7467 136.667 33.5938C136.765 33.4408 136.836 33.2633 136.882 33.0615C136.927 32.8597 136.95 32.6432 136.95 32.4121V32.3096C136.95 32.0817 136.927 31.8685 136.882 31.6699C136.836 31.4681 136.765 31.2907 136.667 31.1377C136.573 30.9814 136.449 30.8594 136.296 30.7715C136.146 30.6803 135.965 30.6348 135.754 30.6348C135.546 30.6348 135.367 30.6803 135.217 30.7715C135.067 30.8594 134.945 30.9814 134.851 31.1377C134.756 31.2907 134.686 31.4681 134.641 31.6699C134.595 31.8685 134.572 32.0817 134.572 32.3096ZM144.572 27.8906V35H143.234V27.8906H144.572ZM146.779 27.8906V28.9502H141.052V27.8906H146.779ZM149.104 27.8906V35H147.761V27.8906H149.104Z" fill="#8A7070"/>
</svg>
